<svg xmlns="http://www.w3.org/2000/svg" viewBox="0 0 420 560" width="420" height="560"><rect width="420" height="560" fill="#c89b9b"/><path d="M130.63 125.24 l 16 -22 l 16 22 l 16 -22 l 16 22" fill="none" stroke="#f0e7d8" stroke-width="7" stroke-linecap="round" stroke-linejoin="round" opacity="0.9"/><polygon points="242.91,239.03 249.21,255.89 267.19,256.67 253.11,267.87 257.92,285.21 242.91,275.28 227.9,285.21 232.71,267.87 218.63,256.67 236.61,255.89" fill="#c5d4b4" opacity="0.9" transform="rotate(221 242.91 264.56)"/><path d="M87.39 404.39 l 16 -22 l 16 22 l 16 -22 l 16 22" fill="none" stroke="#c5d4b4" stroke-width="7" stroke-linecap="round" stroke-linejoin="round" opacity="0.9"/><path d="M98.85 268.77 q 14 -18 28 0 q 14 18 28 0 q 14 -18 28 0 q 14 18 28 0" fill="none" stroke="#f0e7d8" stroke-width="7" stroke-linecap="round" opacity="0.9"/><path d="M352.85 342.49 l 16 -22 l 16 22 l 16 -22 l 16 22" fill="none" stroke="#f0e7d8" stroke-width="7" stroke-linecap="round" stroke-linejoin="round" opacity="0.9"/><path d="M213.23 36.95 l 16 -22 l 16 22 l 16 -22 l 16 22" fill="none" stroke="#f0e7d8" stroke-width="7" stroke-linecap="round" stroke-linejoin="round" opacity="0.9"/><path d="M140.37 469.52 q 14 -18 28 0 q 14 18 28 0 q 14 -18 28 0 q 14 18 28 0" fill="none" stroke="#c5d4b4" stroke-width="7" stroke-linecap="round" opacity="0.9"/><path d="M292.13 249.51 l 16 -22 l 16 22 l 16 -22 l 16 22" fill="none" stroke="#f0e7d8" stroke-width="7" stroke-linecap="round" stroke-linejoin="round" opacity="0.9"/><polygon points="332.11,91.07 336.64,103.18 349.55,103.74 339.44,111.79 342.89,124.25 332.11,117.11 321.33,124.25 324.78,111.79 314.67,103.74 327.58,103.18" fill="#c5d4b4" opacity="0.9" transform="rotate(134 332.11 109.41)"/><path d="M280.8 424.29 l 16 -22 l 16 22 l 16 -22 l 16 22" fill="none" stroke="#c5d4b4" stroke-width="7" stroke-linecap="round" stroke-linejoin="round" opacity="0.9"/><polygon points="302.1,201.53 307.13,214.99 321.48,215.61 310.24,224.56 314.08,238.4 302.1,230.47 290.12,238.4 293.96,224.56 282.72,215.61 297.07,214.99" fill="#f0e7d8" opacity="0.9" transform="rotate(61 302.1 221.91)"/><path d="M335.14 140.04 q 14 -18 28 0 q 14 18 28 0 q 14 -18 28 0 q 14 18 28 0" fill="none" stroke="#f0e7d8" stroke-width="7" stroke-linecap="round" opacity="0.9"/><path d="M165.52 202.78 q 14 -18 28 0 q 14 18 28 0 q 14 -18 28 0 q 14 18 28 0" fill="none" stroke="#c5d4b4" stroke-width="7" stroke-linecap="round" opacity="0.9"/><polygon points="249.97,366.37 253.92,376.94 265.2,377.43 256.37,384.46 259.38,395.33 249.97,389.1 240.56,395.33 243.57,384.46 234.74,377.43 246.02,376.94" fill="#c5d4b4" opacity="0.9" transform="rotate(9 249.97 382.38)"/><rect width="26" height="560" fill="#000" opacity="0.12"/><rect x="26" width="4" height="560" fill="#fff" opacity="0.1"/></svg>
