<svg xmlns="http://www.w3.org/2000/svg" viewBox="0 0 1376 1032" width="1376" height="1032"><line x1="0" y1="-794.43" x2="1376" y2="0" stroke="#94a3b8" stroke-width="2.2"/><line x1="0" y1="-794.43" x2="1376" y2="-1588.87" stroke="#94a3b8" stroke-width="2.2"/><line x1="0" y1="-738.43" x2="1376" y2="56" stroke="#94a3b8" stroke-width="2.2"/><line x1="0" y1="-738.43" x2="1376" y2="-1532.87" stroke="#94a3b8" stroke-width="2.2"/><line x1="0" y1="-682.43" x2="1376" y2="112" stroke="#94a3b8" stroke-width="2.2"/><line x1="0" y1="-682.43" x2="1376" y2="-1476.87" stroke="#94a3b8" stroke-width="2.2"/><line x1="0" y1="-626.43" x2="1376" y2="168" stroke="#94a3b8" stroke-width="2.2"/><line x1="0" y1="-626.43" x2="1376" y2="-1420.87" stroke="#94a3b8" stroke-width="2.2"/><line x1="0" y1="-570.43" x2="1376" y2="224" stroke="#94a3b8" stroke-width="2.2"/><line x1="0" y1="-570.43" x2="1376" y2="-1364.87" stroke="#94a3b8" stroke-width="2.2"/><line x1="0" y1="-514.43" x2="1376" y2="280" stroke="#94a3b8" stroke-width="2.2"/><line x1="0" y1="-514.43" x2="1376" y2="-1308.87" stroke="#94a3b8" stroke-width="2.2"/><line x1="0" y1="-458.43" x2="1376" y2="336" stroke="#94a3b8" stroke-width="2.2"/><line x1="0" y1="-458.43" x2="1376" y2="-1252.87" stroke="#94a3b8" stroke-width="2.2"/><line x1="0" y1="-402.43" x2="1376" y2="392" stroke="#94a3b8" stroke-width="2.2"/><line x1="0" y1="-402.43" x2="1376" y2="-1196.87" stroke="#94a3b8" stroke-width="2.2"/><line x1="0" y1="-346.43" x2="1376" y2="448" stroke="#94a3b8" stroke-width="2.2"/><line x1="0" y1="-346.43" x2="1376" y2="-1140.87" stroke="#94a3b8" stroke-width="2.2"/><line x1="0" y1="-290.43" x2="1376" y2="504" stroke="#94a3b8" stroke-width="2.2"/><line x1="0" y1="-290.43" x2="1376" y2="-1084.87" stroke="#94a3b8" stroke-width="2.2"/><line x1="0" y1="-234.43" x2="1376" y2="560" stroke="#94a3b8" stroke-width="2.2"/><line x1="0" y1="-234.43" x2="1376" y2="-1028.87" stroke="#94a3b8" stroke-width="2.2"/><line x1="0" y1="-178.43" x2="1376" y2="616" stroke="#94a3b8" stroke-width="2.2"/><line x1="0" y1="-178.43" x2="1376" y2="-972.87" stroke="#94a3b8" stroke-width="2.2"/><line x1="0" y1="-122.43" x2="1376" y2="672" stroke="#94a3b8" stroke-width="2.2"/><line x1="0" y1="-122.43" x2="1376" y2="-916.87" stroke="#94a3b8" stroke-width="2.2"/><line x1="0" y1="-66.43" x2="1376" y2="728" stroke="#94a3b8" stroke-width="2.2"/><line x1="0" y1="-66.43" x2="1376" y2="-860.87" stroke="#94a3b8" stroke-width="2.2"/><line x1="0" y1="-10.43" x2="1376" y2="784" stroke="#94a3b8" stroke-width="2.2"/><line x1="0" y1="-10.43" x2="1376" y2="-804.87" stroke="#94a3b8" stroke-width="2.2"/><line x1="0" y1="45.57" x2="1376" y2="840" stroke="#94a3b8" stroke-width="2.2"/><line x1="0" y1="45.57" x2="1376" y2="-748.87" stroke="#94a3b8" stroke-width="2.2"/><line x1="0" y1="101.57" x2="1376" y2="896" stroke="#94a3b8" stroke-width="2.2"/><line x1="0" y1="101.57" x2="1376" y2="-692.87" stroke="#94a3b8" stroke-width="2.2"/><line x1="0" y1="157.57" x2="1376" y2="952" stroke="#94a3b8" stroke-width="2.2"/><line x1="0" y1="157.57" x2="1376" y2="-636.87" stroke="#94a3b8" stroke-width="2.2"/><line x1="0" y1="213.57" x2="1376" y2="1008" stroke="#94a3b8" stroke-width="2.2"/><line x1="0" y1="213.57" x2="1376" y2="-580.87" stroke="#94a3b8" stroke-width="2.2"/><line x1="0" y1="269.57" x2="1376" y2="1064" stroke="#94a3b8" stroke-width="2.2"/><line x1="0" y1="269.57" x2="1376" y2="-524.87" stroke="#94a3b8" stroke-width="2.2"/><line x1="0" y1="325.57" x2="1376" y2="1120" stroke="#94a3b8" stroke-width="2.2"/><line x1="0" y1="325.57" x2="1376" y2="-468.87" stroke="#94a3b8" stroke-width="2.2"/><line x1="0" y1="381.57" x2="1376" y2="1176" stroke="#94a3b8" stroke-width="2.2"/><line x1="0" y1="381.57" x2="1376" y2="-412.87" stroke="#94a3b8" stroke-width="2.2"/><line x1="0" y1="437.57" x2="1376" y2="1232" stroke="#94a3b8" stroke-width="2.2"/><line x1="0" y1="437.57" x2="1376" y2="-356.87" stroke="#94a3b8" stroke-width="2.2"/><line x1="0" y1="493.57" x2="1376" y2="1288" stroke="#94a3b8" stroke-width="2.2"/><line x1="0" y1="493.57" x2="1376" y2="-300.87" stroke="#94a3b8" stroke-width="2.2"/><line x1="0" y1="549.57" x2="1376" y2="1344" stroke="#94a3b8" stroke-width="2.2"/><line x1="0" y1="549.57" x2="1376" y2="-244.87" stroke="#94a3b8" stroke-width="2.2"/><line x1="0" y1="605.57" x2="1376" y2="1400" stroke="#94a3b8" stroke-width="2.2"/><line x1="0" y1="605.57" x2="1376" y2="-188.87" stroke="#94a3b8" stroke-width="2.2"/><line x1="0" y1="661.57" x2="1376" y2="1456" stroke="#94a3b8" stroke-width="2.2"/><line x1="0" y1="661.57" x2="1376" y2="-132.87" stroke="#94a3b8" stroke-width="2.2"/><line x1="0" y1="717.57" x2="1376" y2="1512" stroke="#94a3b8" stroke-width="2.2"/><line x1="0" y1="717.57" x2="1376" y2="-76.87" stroke="#94a3b8" stroke-width="2.2"/><line x1="0" y1="773.57" x2="1376" y2="1568" stroke="#94a3b8" stroke-width="2.2"/><line x1="0" y1="773.57" x2="1376" y2="-20.87" stroke="#94a3b8" stroke-width="2.2"/><line x1="0" y1="829.57" x2="1376" y2="1624" stroke="#94a3b8" stroke-width="2.2"/><line x1="0" y1="829.57" x2="1376" y2="35.13" stroke="#94a3b8" stroke-width="2.2"/><line x1="0" y1="885.57" x2="1376" y2="1680" stroke="#94a3b8" stroke-width="2.2"/><line x1="0" y1="885.57" x2="1376" y2="91.13" stroke="#94a3b8" stroke-width="2.2"/><line x1="0" y1="941.57" x2="1376" y2="1736" stroke="#94a3b8" stroke-width="2.2"/><line x1="0" y1="941.57" x2="1376" y2="147.13" stroke="#94a3b8" stroke-width="2.2"/><line x1="0" y1="997.57" x2="1376" y2="1792" stroke="#94a3b8" stroke-width="2.2"/><line x1="0" y1="997.57" x2="1376" y2="203.13" stroke="#94a3b8" stroke-width="2.2"/><line x1="0" y1="1053.57" x2="1376" y2="1848" stroke="#94a3b8" stroke-width="2.2"/><line x1="0" y1="1053.57" x2="1376" y2="259.13" stroke="#94a3b8" stroke-width="2.2"/><line x1="0" y1="1109.57" x2="1376" y2="1904" stroke="#94a3b8" stroke-width="2.2"/><line x1="0" y1="1109.57" x2="1376" y2="315.13" stroke="#94a3b8" stroke-width="2.2"/><line x1="0" y1="1165.57" x2="1376" y2="1960" stroke="#94a3b8" stroke-width="2.2"/><line x1="0" y1="1165.57" x2="1376" y2="371.13" stroke="#94a3b8" stroke-width="2.2"/><line x1="0" y1="1221.57" x2="1376" y2="2016" stroke="#94a3b8" stroke-width="2.2"/><line x1="0" y1="1221.57" x2="1376" y2="427.13" stroke="#94a3b8" stroke-width="2.2"/><line x1="0" y1="1277.57" x2="1376" y2="2072" stroke="#94a3b8" stroke-width="2.2"/><line x1="0" y1="1277.57" x2="1376" y2="483.13" stroke="#94a3b8" stroke-width="2.2"/><line x1="0" y1="1333.57" x2="1376" y2="2128" stroke="#94a3b8" stroke-width="2.2"/><line x1="0" y1="1333.57" x2="1376" y2="539.13" stroke="#94a3b8" stroke-width="2.2"/><line x1="0" y1="1389.57" x2="1376" y2="2184" stroke="#94a3b8" stroke-width="2.2"/><line x1="0" y1="1389.57" x2="1376" y2="595.13" stroke="#94a3b8" stroke-width="2.2"/><line x1="0" y1="1445.57" x2="1376" y2="2240" stroke="#94a3b8" stroke-width="2.2"/><line x1="0" y1="1445.57" x2="1376" y2="651.13" stroke="#94a3b8" stroke-width="2.2"/><line x1="0" y1="1501.57" x2="1376" y2="2296" stroke="#94a3b8" stroke-width="2.2"/><line x1="0" y1="1501.57" x2="1376" y2="707.13" stroke="#94a3b8" stroke-width="2.2"/><line x1="0" y1="1557.57" x2="1376" y2="2352" stroke="#94a3b8" stroke-width="2.2"/><line x1="0" y1="1557.57" x2="1376" y2="763.13" stroke="#94a3b8" stroke-width="2.2"/><line x1="0" y1="1613.57" x2="1376" y2="2408" stroke="#94a3b8" stroke-width="2.2"/><line x1="0" y1="1613.57" x2="1376" y2="819.13" stroke="#94a3b8" stroke-width="2.2"/><line x1="0" y1="1669.57" x2="1376" y2="2464" stroke="#94a3b8" stroke-width="2.2"/><line x1="0" y1="1669.57" x2="1376" y2="875.13" stroke="#94a3b8" stroke-width="2.2"/><line x1="0" y1="1725.57" x2="1376" y2="2520" stroke="#94a3b8" stroke-width="2.2"/><line x1="0" y1="1725.57" x2="1376" y2="931.13" stroke="#94a3b8" stroke-width="2.2"/><line x1="0" y1="1781.57" x2="1376" y2="2576" stroke="#94a3b8" stroke-width="2.2"/><line x1="0" y1="1781.57" x2="1376" y2="987.13" stroke="#94a3b8" stroke-width="2.2"/></svg>
