<svg xmlns="http://www.w3.org/2000/svg" viewBox="0 0 210 280" width="210" height="280"><rect x="13.02" y="13.02" width="87.09" height="64.84" rx="0" fill="none" stroke="#64748b" stroke-width="2.2"/><line x1="13.02" y1="83.97" x2="100.12" y2="83.97" stroke="#94a3b8" stroke-width="1.2"/><line x1="13.02" y1="89.26" x2="100.12" y2="89.26" stroke="#94a3b8" stroke-width="1.2"/><rect x="109.88" y="13.02" width="87.09" height="64.84" rx="0" fill="none" stroke="#64748b" stroke-width="2.2"/><line x1="109.88" y1="83.97" x2="196.98" y2="83.97" stroke="#94a3b8" stroke-width="1.2"/><line x1="109.88" y1="89.26" x2="196.98" y2="89.26" stroke="#94a3b8" stroke-width="1.2"/><rect x="13.02" y="99.84" width="87.09" height="64.84" rx="0" fill="none" stroke="#64748b" stroke-width="2.2"/><line x1="13.02" y1="170.79" x2="100.12" y2="170.79" stroke="#94a3b8" stroke-width="1.2"/><line x1="13.02" y1="176.09" x2="100.12" y2="176.09" stroke="#94a3b8" stroke-width="1.2"/><rect x="109.88" y="99.84" width="87.09" height="64.84" rx="0" fill="none" stroke="#64748b" stroke-width="2.2"/><line x1="109.88" y1="170.79" x2="196.98" y2="170.79" stroke="#94a3b8" stroke-width="1.2"/><line x1="109.88" y1="176.09" x2="196.98" y2="176.09" stroke="#94a3b8" stroke-width="1.2"/><rect x="13.02" y="186.67" width="87.09" height="64.84" rx="0" fill="none" stroke="#64748b" stroke-width="2.2"/><line x1="13.02" y1="257.62" x2="100.12" y2="257.62" stroke="#94a3b8" stroke-width="1.2"/><line x1="13.02" y1="262.91" x2="100.12" y2="262.91" stroke="#94a3b8" stroke-width="1.2"/><rect x="109.88" y="186.67" width="87.09" height="64.84" rx="0" fill="none" stroke="#64748b" stroke-width="2.2"/><line x1="109.88" y1="257.62" x2="196.98" y2="257.62" stroke="#94a3b8" stroke-width="1.2"/><line x1="109.88" y1="262.91" x2="196.98" y2="262.91" stroke="#94a3b8" stroke-width="1.2"/></svg>
