<svg xmlns="http://www.w3.org/2000/svg" viewBox="0 0 210 280" width="210" height="280"><line x1="6.51" y1="0" x2="6.51" y2="280" stroke="#94a3b8" stroke-width="1.1"/><line x1="13.02" y1="0" x2="13.02" y2="280" stroke="#94a3b8" stroke-width="1.1"/><line x1="19.53" y1="0" x2="19.53" y2="280" stroke="#94a3b8" stroke-width="1.1"/><line x1="26.05" y1="0" x2="26.05" y2="280" stroke="#94a3b8" stroke-width="1.1"/><line x1="32.56" y1="0" x2="32.56" y2="280" stroke="#94a3b8" stroke-width="1.1"/><line x1="39.07" y1="0" x2="39.07" y2="280" stroke="#94a3b8" stroke-width="1.1"/><line x1="45.58" y1="0" x2="45.58" y2="280" stroke="#94a3b8" stroke-width="1.1"/><line x1="52.09" y1="0" x2="52.09" y2="280" stroke="#94a3b8" stroke-width="1.1"/><line x1="58.6" y1="0" x2="58.6" y2="280" stroke="#94a3b8" stroke-width="1.1"/><line x1="65.12" y1="0" x2="65.12" y2="280" stroke="#94a3b8" stroke-width="1.1"/><line x1="71.63" y1="0" x2="71.63" y2="280" stroke="#94a3b8" stroke-width="1.1"/><line x1="78.14" y1="0" x2="78.14" y2="280" stroke="#94a3b8" stroke-width="1.1"/><line x1="84.65" y1="0" x2="84.65" y2="280" stroke="#94a3b8" stroke-width="1.1"/><line x1="91.16" y1="0" x2="91.16" y2="280" stroke="#94a3b8" stroke-width="1.1"/><line x1="97.67" y1="0" x2="97.67" y2="280" stroke="#94a3b8" stroke-width="1.1"/><line x1="104.19" y1="0" x2="104.19" y2="280" stroke="#94a3b8" stroke-width="1.1"/><line x1="110.7" y1="0" x2="110.7" y2="280" stroke="#94a3b8" stroke-width="1.1"/><line x1="117.21" y1="0" x2="117.21" y2="280" stroke="#94a3b8" stroke-width="1.1"/><line x1="123.72" y1="0" x2="123.72" y2="280" stroke="#94a3b8" stroke-width="1.1"/><line x1="130.23" y1="0" x2="130.23" y2="280" stroke="#94a3b8" stroke-width="1.1"/><line x1="136.74" y1="0" x2="136.74" y2="280" stroke="#94a3b8" stroke-width="1.1"/><line x1="143.26" y1="0" x2="143.26" y2="280" stroke="#94a3b8" stroke-width="1.1"/><line x1="149.77" y1="0" x2="149.77" y2="280" stroke="#94a3b8" stroke-width="1.1"/><line x1="156.28" y1="0" x2="156.28" y2="280" stroke="#94a3b8" stroke-width="1.1"/><line x1="162.79" y1="0" x2="162.79" y2="280" stroke="#94a3b8" stroke-width="1.1"/><line x1="169.3" y1="0" x2="169.3" y2="280" stroke="#94a3b8" stroke-width="1.1"/><line x1="175.81" y1="0" x2="175.81" y2="280" stroke="#94a3b8" stroke-width="1.1"/><line x1="182.33" y1="0" x2="182.33" y2="280" stroke="#94a3b8" stroke-width="1.1"/><line x1="188.84" y1="0" x2="188.84" y2="280" stroke="#94a3b8" stroke-width="1.1"/><line x1="195.35" y1="0" x2="195.35" y2="280" stroke="#94a3b8" stroke-width="1.1"/><line x1="201.86" y1="0" x2="201.86" y2="280" stroke="#94a3b8" stroke-width="1.1"/><line x1="208.37" y1="0" x2="208.37" y2="280" stroke="#94a3b8" stroke-width="1.1"/><line x1="0" y1="6.51" x2="210" y2="6.51" stroke="#94a3b8" stroke-width="1.1"/><line x1="0" y1="13.02" x2="210" y2="13.02" stroke="#94a3b8" stroke-width="1.1"/><line x1="0" y1="19.53" x2="210" y2="19.53" stroke="#94a3b8" stroke-width="1.1"/><line x1="0" y1="26.05" x2="210" y2="26.05" stroke="#94a3b8" stroke-width="1.1"/><line x1="0" y1="32.56" x2="210" y2="32.56" stroke="#94a3b8" stroke-width="1.1"/><line x1="0" y1="39.07" x2="210" y2="39.07" stroke="#94a3b8" stroke-width="1.1"/><line x1="0" y1="45.58" x2="210" y2="45.58" stroke="#94a3b8" stroke-width="1.1"/><line x1="0" y1="52.09" x2="210" y2="52.09" stroke="#94a3b8" stroke-width="1.1"/><line x1="0" y1="58.6" x2="210" y2="58.6" stroke="#94a3b8" stroke-width="1.1"/><line x1="0" y1="65.12" x2="210" y2="65.12" stroke="#94a3b8" stroke-width="1.1"/><line x1="0" y1="71.63" x2="210" y2="71.63" stroke="#94a3b8" stroke-width="1.1"/><line x1="0" y1="78.14" x2="210" y2="78.14" stroke="#94a3b8" stroke-width="1.1"/><line x1="0" y1="84.65" x2="210" y2="84.65" stroke="#94a3b8" stroke-width="1.1"/><line x1="0" y1="91.16" x2="210" y2="91.16" stroke="#94a3b8" stroke-width="1.1"/><line x1="0" y1="97.67" x2="210" y2="97.67" stroke="#94a3b8" stroke-width="1.1"/><line x1="0" y1="104.19" x2="210" y2="104.19" stroke="#94a3b8" stroke-width="1.1"/><line x1="0" y1="110.7" x2="210" y2="110.7" stroke="#94a3b8" stroke-width="1.1"/><line x1="0" y1="117.21" x2="210" y2="117.21" stroke="#94a3b8" stroke-width="1.1"/><line x1="0" y1="123.72" x2="210" y2="123.72" stroke="#94a3b8" stroke-width="1.1"/><line x1="0" y1="130.23" x2="210" y2="130.23" stroke="#94a3b8" stroke-width="1.1"/><line x1="0" y1="136.74" x2="210" y2="136.74" stroke="#94a3b8" stroke-width="1.1"/><line x1="0" y1="143.26" x2="210" y2="143.26" stroke="#94a3b8" stroke-width="1.1"/><line x1="0" y1="149.77" x2="210" y2="149.77" stroke="#94a3b8" stroke-width="1.1"/><line x1="0" y1="156.28" x2="210" y2="156.28" stroke="#94a3b8" stroke-width="1.1"/><line x1="0" y1="162.79" x2="210" y2="162.79" stroke="#94a3b8" stroke-width="1.1"/><line x1="0" y1="169.3" x2="210" y2="169.3" stroke="#94a3b8" stroke-width="1.1"/><line x1="0" y1="175.81" x2="210" y2="175.81" stroke="#94a3b8" stroke-width="1.1"/><line x1="0" y1="182.33" x2="210" y2="182.33" stroke="#94a3b8" stroke-width="1.1"/><line x1="0" y1="188.84" x2="210" y2="188.84" stroke="#94a3b8" stroke-width="1.1"/><line x1="0" y1="195.35" x2="210" y2="195.35" stroke="#94a3b8" stroke-width="1.1"/><line x1="0" y1="201.86" x2="210" y2="201.86" stroke="#94a3b8" stroke-width="1.1"/><line x1="0" y1="208.37" x2="210" y2="208.37" stroke="#94a3b8" stroke-width="1.1"/><line x1="0" y1="214.88" x2="210" y2="214.88" stroke="#94a3b8" stroke-width="1.1"/><line x1="0" y1="221.4" x2="210" y2="221.4" stroke="#94a3b8" stroke-width="1.1"/><line x1="0" y1="227.91" x2="210" y2="227.91" stroke="#94a3b8" stroke-width="1.1"/><line x1="0" y1="234.42" x2="210" y2="234.42" stroke="#94a3b8" stroke-width="1.1"/><line x1="0" y1="240.93" x2="210" y2="240.93" stroke="#94a3b8" stroke-width="1.1"/><line x1="0" y1="247.44" x2="210" y2="247.44" stroke="#94a3b8" stroke-width="1.1"/><line x1="0" y1="253.95" x2="210" y2="253.95" stroke="#94a3b8" stroke-width="1.1"/><line x1="0" y1="260.47" x2="210" y2="260.47" stroke="#94a3b8" stroke-width="1.1"/><line x1="0" y1="266.98" x2="210" y2="266.98" stroke="#94a3b8" stroke-width="1.1"/><line x1="0" y1="273.49" x2="210" y2="273.49" stroke="#94a3b8" stroke-width="1.1"/><line x1="0" y1="280" x2="210" y2="280" stroke="#94a3b8" stroke-width="1.1"/></svg>
